<svg width="17" height="16" viewBox="0 0 17 16" fill="none" xmlns="http://www.w3.org/2000/svg">
<path d="M14 7V4" stroke="black" stroke-linecap="round" stroke-linejoin="round"/>
<path d="M15.5 5.5H12.5" stroke="black" stroke-linecap="round" stroke-linejoin="round"/>
<path d="M11 1.5V3.5" stroke="black" stroke-linecap="round" stroke-linejoin="round"/>
<path d="M12 2.5H10" stroke="black" stroke-linecap="round" stroke-linejoin="round"/>
<path d="M14.0436 9.53752C13.0619 9.8128 12.0247 9.82182 11.0384 9.56366C10.0521 9.3055 9.15223 8.78946 8.43131 8.06854C7.71039 7.34762 7.19436 6.4478 6.93619 5.46149C6.67803 4.47519 6.68706 3.43794 6.96233 2.45627C5.9945 2.72565 5.11413 3.24391 4.40892 3.95941C3.70371 4.67492 3.19827 5.56271 2.94295 6.53435C2.68763 7.50599 2.69133 8.52756 2.95369 9.49732C3.21605 10.4671 3.72791 11.3512 4.43829 12.0616C5.14866 12.7719 6.03276 13.2838 7.00253 13.5462C7.97229 13.8085 8.99387 13.8122 9.9655 13.5569C10.9371 13.3016 11.8249 12.7961 12.5404 12.0909C13.2559 11.3857 13.7742 10.5054 14.0436 9.53752Z" stroke="black" stroke-linecap="round" stroke-linejoin="round"/>
</svg>
